<svg width="156" height="49" viewBox="0 0 156 49" fill="none" xmlns="http://www.w3.org/2000/svg">
<path d="M12.7178 0.5C4.02578 0.5 1.42744 9 1.42744 14.2143H36.7353C46.8966 14.2143 48 5 48 0.5H12.7178Z" fill="#6758E1"/>
<path d="M32.4758 21.0714H1.42744V48.5H7.0726C16.1049 48.5 15.0967 39.5 15.0967 34.7857H21.1354C31.2967 34.7857 32.4758 26 32.4758 21.0714Z" fill="#6758E1"/>
<path d="M12.7178 0.5C4.02578 0.5 1.42744 9 1.42744 14.2143H36.7353C46.8966 14.2143 48 5 48 0.5H12.7178Z" stroke="#6758E1"/>
<path d="M32.4758 21.0714H1.42744V48.5H7.0726C16.1049 48.5 15.0967 39.5 15.0967 34.7857H21.1354C31.2967 34.7857 32.4758 26 32.4758 21.0714Z" stroke="#6758E1"/>
<path d="M62.16 22.78H75.08V28.9H62.16V22.78ZM62.72 38.5H54.8V10.5H76.76V16.62H62.72V38.5ZM80.1041 38.5V16.82H87.7041V38.5H80.1041ZM83.9041 14.42C82.5174 14.42 81.3974 14.0333 80.5441 13.26C79.6907 12.4867 79.2641 11.5267 79.2641 10.38C79.2641 9.23333 79.6907 8.27333 80.5441 7.5C81.3974 6.72667 82.5174 6.34 83.9041 6.34C85.2907 6.34 86.4107 6.71333 87.2641 7.46C88.1174 8.18 88.5441 9.11333 88.5441 10.26C88.5441 11.46 88.1174 12.46 87.2641 13.26C86.4374 14.0333 85.3174 14.42 83.9041 14.42ZM106.763 16.46C108.443 16.46 109.963 16.8067 111.323 17.5C112.683 18.1667 113.75 19.2067 114.523 20.62C115.323 22.0333 115.723 23.86 115.723 26.1V38.5H108.123V27.34C108.123 25.7933 107.803 24.6733 107.163 23.98C106.55 23.26 105.683 22.9 104.563 22.9C103.763 22.9 103.03 23.0867 102.363 23.46C101.696 23.8067 101.176 24.3533 100.803 25.1C100.43 25.8467 100.243 26.82 100.243 28.02V38.5H92.6431V16.82H99.8831V22.98L98.4831 21.18C99.3098 19.6067 100.443 18.4333 101.883 17.66C103.323 16.86 104.95 16.46 106.763 16.46ZM120.495 38.5V8.82H128.095V38.5H120.495ZM136.754 46.62C135.607 46.62 134.447 46.4333 133.274 46.06C132.127 45.7133 131.194 45.2467 130.474 44.66L133.114 39.34C133.567 39.74 134.087 40.0467 134.674 40.26C135.287 40.5 135.887 40.62 136.474 40.62C137.3 40.62 137.954 40.4333 138.434 40.06C138.914 39.6867 139.327 39.1 139.674 38.3L140.674 35.78L141.274 35.02L148.634 16.82H155.874L146.514 39.38C145.767 41.2467 144.9 42.7 143.914 43.74C142.954 44.8067 141.874 45.5533 140.674 45.98C139.5 46.4067 138.194 46.62 136.754 46.62ZM139.714 39.42L130.154 16.82H137.954L144.994 34.34L139.714 39.42Z" fill="black"/>
</svg>
